<svg width="389" height="309" viewBox="0 0 389 309" fill="none" xmlns="http://www.w3.org/2000/svg">
<g clip-path="url(#clip0_31_94)">
<path d="M389.028 283.909C387.895 282.81 386.807 281.634 385.769 280.385C373.014 261.467 355.175 265.462 343.572 280.256C338.194 287.104 332.599 293.096 324.962 295.322C317.085 297.576 310.479 294.266 305.156 287.347C299.398 279.871 294.487 271.282 289.098 263.322C284.438 256.417 279.071 251.352 271.629 250.567C262.003 249.554 255.865 256.673 250.9 265.747C246.815 273.208 243.697 281.597 240.1 289.544C231.518 308.462 217.09 313.698 201.782 304.752C192.718 299.599 183.374 295.34 173.828 292.012C165.648 289.184 156.953 290.599 149.547 295.964C125.645 312.414 111.044 297.091 100.418 270.683C98.3105 265.447 96.7135 259.855 94.8992 254.419C87.3919 231.806 66.1848 228.14 54.8534 247.885C50.5338 255.768 46.6906 264.082 43.3589 272.752C36.6557 289.316 25.9 294.152 12.9389 286.034C12.287 285.621 11.6569 285.164 11.0051 284.765C2.97634 279.714 -1.09777 273.137 -0.99999 259.655C-0.348132 176.237 -0.684925 92.8053 -0.684925 9.37326C-0.684925 0 -0.674061 0 6.53983 0H381.228C388.963 0 389.028 0 389.028 10.3862C389.028 98.5738 389.028 186.761 389.028 274.949V283.909Z" fill="url(#paint0_linear_31_94)"/>
</g>
<defs>
<linearGradient id="paint0_linear_31_94" x1="194.013" y1="0" x2="194.013" y2="309" gradientUnits="userSpaceOnUse">
<stop stop-color="#F2AF29"/>
<stop offset="1" stop-color="#E70E02"/>
</linearGradient>
<clipPath id="clip0_31_94">
<rect width="389" height="309" rx="10" fill="white"/>
</clipPath>
</defs>
</svg>
